<svg xmlns="http://www.w3.org/2000/svg" style="display:none">
  <!-- Lucide-style icons, stroke-width:2, viewBox 0 0 24 24 -->
  <symbol id="i-shield" viewBox="0 0 24 24"><path d="M12 22s8-4 8-10V5l-8-3-8 3v7c0 6 8 10 8 10z"/></symbol>
  <symbol id="i-cpu" viewBox="0 0 24 24"><rect x="4" y="4" width="16" height="16" rx="2"/><rect x="9" y="9" width="6" height="6"/><path d="M9 1v3M15 1v3M9 20v3M15 20v3M20 9h3M20 14h3M1 9h3M1 14h3"/></symbol>
  <symbol id="i-memory" viewBox="0 0 24 24"><path d="M6 19v-3"/><path d="M10 19v-3"/><path d="M14 19v-3"/><path d="M18 19v-3"/><path d="M8 11V9"/><path d="M16 11V9"/><path d="M12 11V9"/><path d="M2 15h20"/><path d="M2 7a2 2 0 0 1 2-2h16a2 2 0 0 1 2 2v1.1a2 2 0 0 0 0 3.837V17a2 2 0 0 1-2 2H4a2 2 0 0 1-2-2v-5.1a2 2 0 0 0 0-3.837Z"/></symbol>
  <symbol id="i-hard-drive" viewBox="0 0 24 24"><line x1="22" y1="12" x2="2" y2="12"/><path d="M5.45 5.11 2 12v6a2 2 0 0 0 2 2h16a2 2 0 0 0 2-2v-6l-3.45-6.89A2 2 0 0 0 16.76 4H7.24a2 2 0 0 0-1.79 1.11z"/><line x1="6" y1="16" x2="6.01" y2="16"/><line x1="10" y1="16" x2="10.01" y2="16"/></symbol>
  <symbol id="i-server" viewBox="0 0 24 24"><rect x="2" y="2" width="20" height="8" rx="2" ry="2"/><rect x="2" y="14" width="20" height="8" rx="2" ry="2"/><line x1="6" y1="6" x2="6.01" y2="6"/><line x1="6" y1="18" x2="6.01" y2="18"/></symbol>
  <symbol id="i-network" viewBox="0 0 24 24"><rect x="16" y="16" width="6" height="6" rx="1"/><rect x="2" y="16" width="6" height="6" rx="1"/><rect x="9" y="2" width="6" height="6" rx="1"/><path d="M5 16v-3a1 1 0 0 1 1-1h12a1 1 0 0 1 1 1v3"/><path d="M12 12V8"/></symbol>
  <symbol id="i-brain" viewBox="0 0 24 24"><path d="M12 5a3 3 0 1 0-5.997.125 4 4 0 0 0-2.526 5.77 4 4 0 0 0 .556 6.588A4 4 0 1 0 12 18Z"/><path d="M12 5a3 3 0 1 1 5.997.125 4 4 0 0 1 2.526 5.77 4 4 0 0 1-.556 6.588A4 4 0 1 1 12 18Z"/><path d="M15 13a4.5 4.5 0 0 1-3-4 4.5 4.5 0 0 1-3 4"/><path d="M17.599 6.5a3 3 0 0 0 .399-1.375"/><path d="M6.003 5.125A3 3 0 0 0 6.401 6.5"/><path d="M3.477 10.896a4 4 0 0 1 .585-.396"/><path d="M19.938 10.5a4 4 0 0 1 .585.396"/><path d="M6 18a4 4 0 0 1-1.967-.516"/><path d="M19.967 17.484A4 4 0 0 1 18 18"/></symbol>
  <symbol id="i-activity" viewBox="0 0 24 24"><polyline points="22 12 18 12 15 21 9 3 6 12 2 12"/></symbol>
  <symbol id="i-alert-triangle" viewBox="0 0 24 24"><path d="m21.73 18-8-14a2 2 0 0 0-3.48 0l-8 14A2 2 0 0 0 4 21h16a2 2 0 0 0 1.73-3Z"/><line x1="12" y1="9" x2="12" y2="13"/><line x1="12" y1="17" x2="12.01" y2="17"/></symbol>
  <symbol id="i-alert-circle" viewBox="0 0 24 24"><circle cx="12" cy="12" r="10"/><line x1="12" y1="8" x2="12" y2="12"/><line x1="12" y1="16" x2="12.01" y2="16"/></symbol>
  <symbol id="i-check-circle" viewBox="0 0 24 24"><path d="M22 11.08V12a10 10 0 1 1-5.93-9.14"/><polyline points="22 4 12 14.01 9 11.01"/></symbol>
  <symbol id="i-x-circle" viewBox="0 0 24 24"><circle cx="12" cy="12" r="10"/><line x1="15" y1="9" x2="9" y2="15"/><line x1="9" y1="9" x2="15" y2="15"/></symbol>
  <symbol id="i-info" viewBox="0 0 24 24"><circle cx="12" cy="12" r="10"/><line x1="12" y1="16" x2="12" y2="12"/><line x1="12" y1="8" x2="12.01" y2="8"/></symbol>
  <symbol id="i-search" viewBox="0 0 24 24"><circle cx="11" cy="11" r="8"/><line x1="21" y1="21" x2="16.65" y2="16.65"/></symbol>
  <symbol id="i-settings" viewBox="0 0 24 24"><path d="M12.22 2h-.44a2 2 0 0 0-2 2v.18a2 2 0 0 1-1 1.73l-.43.25a2 2 0 0 1-2 0l-.15-.08a2 2 0 0 0-2.73.73l-.22.38a2 2 0 0 0 .73 2.73l.15.1a2 2 0 0 1 1 1.72v.51a2 2 0 0 1-1 1.74l-.15.09a2 2 0 0 0-.73 2.73l.22.38a2 2 0 0 0 2.73.73l.15-.08a2 2 0 0 1 2 0l.43.25a2 2 0 0 1 1 1.73V20a2 2 0 0 0 2 2h.44a2 2 0 0 0 2-2v-.18a2 2 0 0 1 1-1.73l.43-.25a2 2 0 0 1 2 0l.15.08a2 2 0 0 0 2.73-.73l.22-.39a2 2 0 0 0-.73-2.73l-.15-.08a2 2 0 0 1-1-1.74v-.5a2 2 0 0 1 1-1.74l.15-.09a2 2 0 0 0 .73-2.73l-.22-.38a2 2 0 0 0-2.73-.73l-.15.08a2 2 0 0 1-2 0l-.43-.25a2 2 0 0 1-1-1.73V4a2 2 0 0 0-2-2z"/><circle cx="12" cy="12" r="3"/></symbol>
  <symbol id="i-sun" viewBox="0 0 24 24"><circle cx="12" cy="12" r="4"/><path d="M12 2v2"/><path d="M12 20v2"/><path d="m4.93 4.93 1.41 1.41"/><path d="m17.66 17.66 1.41 1.41"/><path d="M2 12h2"/><path d="M20 12h2"/><path d="m6.34 17.66-1.41 1.41"/><path d="m19.07 4.93-1.41 1.41"/></symbol>
  <symbol id="i-moon" viewBox="0 0 24 24"><path d="M21 12.79A9 9 0 1 1 11.21 3 7 7 0 0 0 21 12.79z"/></symbol>
  <symbol id="i-refresh" viewBox="0 0 24 24"><path d="M21 12a9 9 0 0 0-9-9 9.75 9.75 0 0 0-6.74 2.74L3 8"/><path d="M3 3v5h5"/><path d="M3 12a9 9 0 0 0 9 9 9.75 9.75 0 0 0 6.74-2.74L21 16"/><path d="M16 16h5v5"/></symbol>
  <symbol id="i-zap" viewBox="0 0 24 24"><polygon points="13 2 3 14 12 14 11 22 21 10 12 10 13 2"/></symbol>
  <symbol id="i-bot" viewBox="0 0 24 24"><path d="M12 8V4H8"/><rect width="16" height="12" x="4" y="8" rx="2"/><path d="M2 14h2"/><path d="M20 14h2"/><path d="M15 13v2"/><path d="M9 13v2"/></symbol>
  <symbol id="i-target" viewBox="0 0 24 24"><circle cx="12" cy="12" r="10"/><circle cx="12" cy="12" r="6"/><circle cx="12" cy="12" r="2"/></symbol>
  <symbol id="i-bug" viewBox="0 0 24 24"><path d="m8 2 1.88 1.88"/><path d="M14.12 3.88 16 2"/><path d="M9 7.13v-1a3.003 3.003 0 1 1 6 0v1"/><path d="M12 20c-3.3 0-6-2.7-6-6v-3a4 4 0 0 1 4-4h4a4 4 0 0 1 4 4v3c0 3.3-2.7 6-6 6"/><path d="M12 20v-9"/><path d="M6.53 9C4.6 8.8 3 7.1 3 5"/><path d="M6 13H2"/><path d="M3 21c0-2.1 1.7-3.9 3.8-4"/><path d="M20.97 5c0 2.1-1.6 3.8-3.5 4"/><path d="M22 13h-4"/><path d="M17.2 17c2.1.1 3.8 1.9 3.8 4"/></symbol>
  <symbol id="i-lock" viewBox="0 0 24 24"><rect x="3" y="11" width="18" height="11" rx="2" ry="2"/><path d="M7 11V7a5 5 0 0 1 10 0v4"/></symbol>
  <symbol id="i-skull" viewBox="0 0 24 24"><path d="M9 11h.01"/><path d="M15 11h.01"/><circle cx="12" cy="14" r="1"/><path d="M14 17H10"/><path d="M22 12c0 5.5-4.5 10-10 10S2 17.5 2 12 6.5 2 12 2s10 4.5 10 10z"/></symbol>
  <symbol id="i-globe" viewBox="0 0 24 24"><circle cx="12" cy="12" r="10"/><line x1="2" y1="12" x2="22" y2="12"/><path d="M12 2a15.3 15.3 0 0 1 4 10 15.3 15.3 0 0 1-4 10 15.3 15.3 0 0 1-4-10 15.3 15.3 0 0 1 4-10z"/></symbol>
  <symbol id="i-stop-circle" viewBox="0 0 24 24"><circle cx="12" cy="12" r="10"/><rect x="9" y="9" width="6" height="6"/></symbol>
  <symbol id="i-play" viewBox="0 0 24 24"><polygon points="5 3 19 12 5 21 5 3"/></symbol>
  <symbol id="i-flame" viewBox="0 0 24 24"><path d="M8.5 14.5A2.5 2.5 0 0 0 11 12c0-1.38-.5-2-1-3-1.072-2.143-.224-4.054 2-6 .5 2.5 2 4.9 4 6.5 2 1.6 3 3.5 3 5.5a7 7 0 1 1-14 0c0-1.153.433-2.294 1-3a2.5 2.5 0 0 0 2.5 2.5z"/></symbol>
  <symbol id="i-database" viewBox="0 0 24 24"><ellipse cx="12" cy="5" rx="9" ry="3"/><path d="M3 5v14a9 3 0 0 0 18 0V5"/><path d="M3 12a9 3 0 0 0 18 0"/></symbol>
  <symbol id="i-eye" viewBox="0 0 24 24"><path d="M2 12s3-7 10-7 10 7 10 7-3 7-10 7-10-7-10-7Z"/><circle cx="12" cy="12" r="3"/></symbol>
  <symbol id="i-x" viewBox="0 0 24 24"><line x1="18" y1="6" x2="6" y2="18"/><line x1="6" y1="6" x2="18" y2="18"/></symbol>
  <symbol id="i-arrow-right" viewBox="0 0 24 24"><line x1="5" y1="12" x2="19" y2="12"/><polyline points="12 5 19 12 12 19"/></symbol>
  <symbol id="i-list" viewBox="0 0 24 24"><line x1="8" y1="6" x2="21" y2="6"/><line x1="8" y1="12" x2="21" y2="12"/><line x1="8" y1="18" x2="21" y2="18"/><line x1="3" y1="6" x2="3.01" y2="6"/><line x1="3" y1="12" x2="3.01" y2="12"/><line x1="3" y1="18" x2="3.01" y2="18"/></symbol>
  <symbol id="i-book" viewBox="0 0 24 24"><path d="M4 19.5A2.5 2.5 0 0 1 6.5 17H20"/><path d="M6.5 2H20v20H6.5A2.5 2.5 0 0 1 4 19.5v-15A2.5 2.5 0 0 1 6.5 2z"/></symbol>
  <symbol id="i-trending-up" viewBox="0 0 24 24"><polyline points="22 7 13.5 15.5 8.5 10.5 2 17"/><polyline points="16 7 22 7 22 13"/></symbol>
  <symbol id="i-clock" viewBox="0 0 24 24"><circle cx="12" cy="12" r="10"/><polyline points="12 6 12 12 16 14"/></symbol>
  <symbol id="i-send" viewBox="0 0 24 24"><line x1="22" y1="2" x2="11" y2="13"/><polygon points="22 2 15 22 11 13 2 9 22 2"/></symbol>
  <symbol id="i-radio" viewBox="0 0 24 24"><circle cx="12" cy="12" r="2"/><path d="M16.24 7.76a6 6 0 0 1 0 8.49m-8.48-.01a6 6 0 0 1 0-8.49m11.31-2.82a10 10 0 0 1 0 14.14m-14.14 0a10 10 0 0 1 0-14.14"/></symbol>
  <symbol id="i-sliders" viewBox="0 0 24 24"><line x1="4" y1="21" x2="4" y2="14"/><line x1="4" y1="10" x2="4" y2="3"/><line x1="12" y1="21" x2="12" y2="12"/><line x1="12" y1="8" x2="12" y2="3"/><line x1="20" y1="21" x2="20" y2="16"/><line x1="20" y1="12" x2="20" y2="3"/><line x1="1" y1="14" x2="7" y2="14"/><line x1="9" y1="8" x2="15" y2="8"/><line x1="17" y1="16" x2="23" y2="16"/></symbol>
  <symbol id="i-grid" viewBox="0 0 24 24"><rect x="3" y="3" width="7" height="7"/><rect x="14" y="3" width="7" height="7"/><rect x="14" y="14" width="7" height="7"/><rect x="3" y="14" width="7" height="7"/></symbol>
  <symbol id="i-package" viewBox="0 0 24 24"><line x1="16.5" y1="9.4" x2="7.5" y2="4.21"/><path d="M21 16V8a2 2 0 0 0-1-1.73l-7-4a2 2 0 0 0-2 0l-7 4A2 2 0 0 0 3 8v8a2 2 0 0 0 1 1.73l7 4a2 2 0 0 0 2 0l7-4A2 2 0 0 0 21 16z"/><polyline points="3.27 6.96 12 12.01 20.73 6.96"/><line x1="12" y1="22.08" x2="12" y2="12"/></symbol>
  <symbol id="i-layers" viewBox="0 0 24 24"><polygon points="12 2 2 7 12 12 22 7 12 2"/><polyline points="2 17 12 22 22 17"/><polyline points="2 12 12 17 22 12"/></symbol>
  <symbol id="i-terminal" viewBox="0 0 24 24"><polyline points="4 17 10 11 4 5"/><line x1="12" y1="19" x2="20" y2="19"/></symbol>
  <symbol id="i-fingerprint" viewBox="0 0 24 24"><path d="M2 12C2 6.5 6.5 2 12 2a10 10 0 0 1 8 4"/><path d="M5 19.5C5.5 18 6 15 6 12a6 6 0 0 1 .34-2"/><path d="M17.29 21.02c.12-.6.43-2.3.5-3.02"/><path d="M12 10a2 2 0 0 0-2 2c0 1.02-.1 2.51-.26 4"/><path d="M8.65 22c.21-.66.45-1.32.57-2"/><path d="M14 13.12c0 2.38 0 6.38-1 8.88"/><path d="M2 16h.01"/><path d="M21.8 16c.2-2 .131-5.354 0-6"/><path d="M9 6.8a6 6 0 0 1 9 5.2c0 .47 0 1.17-.02 2"/></symbol>
  <symbol id="i-cloud-off" viewBox="0 0 24 24"><line x1="2" y1="2" x2="22" y2="22"/><path d="M5.782 5.782A7 7 0 0 0 9 19h8.5a4.5 4.5 0 0 0 1.307-.193"/><path d="M21.532 16.5A4.5 4.5 0 0 0 17.5 10h-1.79A7.008 7.008 0 0 0 10 5.07"/></symbol>
  <symbol id="i-trash" viewBox="0 0 24 24"><polyline points="3 6 5 6 21 6"/><path d="M19 6v14a2 2 0 0 1-2 2H7a2 2 0 0 1-2-2V6m3 0V4a2 2 0 0 1 2-2h4a2 2 0 0 1 2 2v2"/></symbol>
  <symbol id="i-pause" viewBox="0 0 24 24"><rect x="6" y="4" width="4" height="16"/><rect x="14" y="4" width="4" height="16"/></symbol>
  <symbol id="i-shield-check" viewBox="0 0 24 24"><path d="M12 22s8-4 8-10V5l-8-3-8 3v7c0 6 8 10 8 10z"/><path d="m9 12 2 2 4-4"/></symbol>
</svg>
